# xmcd CD database file
#
# Track frame offsets:
#	150
#	13129
#	26184
#	39694
#	52672
#	64963
#	79085
#	92040
#	102826
#	114733
#	126794
#	139487
#	151988
#	163989
#	178419
#	190885
#	204673
#	215218
#	226012
#	237638
#	249181
#	263789
#	278271
#	292548
#	303885
#	315787
#	327995
#
# Disc length: 4535 seconds
#
# Revision: 0
# Processed by: cddbd v1.5.1PL2 Copyright (c) Steve Scherf et al.
# Submitted via: CDex 1.51
#
DISCID=7e11b51b
DTITLE=Various Artist - Califonria Cool Club Blues
DYEAR=2003
DGENRE=Blues
TTITLE0=Johnny Moore And The Three Blazers - A New Shade Of Blues
TTITLE1=Nat King Cole Trio - Gee Baby, Ain't I Good To You
TTITLE2=Ray Charles - Baby Let Me Hold Your Hand
TTITLE3=Nellie Lutcher - Fine Brown Frame
TTITLE4=Private Cecil Gant - I Wonder
TTITLE5=Ivory Joe Hunter - I Almost Lost My Mind
TTITLE6=Percy Mayfield - Please Send Me Someone To Love
TTITLE7=Nat King Cole Trio - Straighten Up And Fly Right
TTITLE8=Johnny Moore And The Three Blazers - The Jumpin Jack
TTITLE9=Pee Wee Crayton - Central Ave Blues
TTITLE10=Private Cecil Gant - Midnight On Central Ave
TTITLE11=Johnny Moore And The Three Blazers - L. A. Blues
TTITLE12=Amos Milburn - Let's Rock A While
TTITLE13=Johnny Moore And The Three Blazers - Driftin Blues
TTITLE14=Johnny Otis Orchestra - Double Crossing Blues
TTITLE15=Charles Brown - Black Night
TTITLE16=Lloyd Glenn - Chico Boo
TTITLE17=Nat King Cole And Nellie Lutcher - For You My Love
TTITLE18=Floy Dixon - Tired Broke And Busted
TTITLE19=Lowell Fulson - I'm A Night Owl
TTITLE20=Billy Eckstine - If That's The Way You Feel
TTITLE21=Slim Gaillard - Slim's Jam
TTITLE22=Earl Coleman - This Is Always
TTITLE23=Mabel Scott - Don't Cry Baby 
TTITLE24=Maxwell Davis - Popsicle
TTITLE25=T-Bone Walker - Life Is Too Short
TTITLE26=Sonny Thompson - Blues For The Night Owls
EXTD=YEAR: 2003
EXTT0=
EXTT1=
EXTT2=
EXTT3=
EXTT4=
EXTT5=
EXTT6=
EXTT7=
EXTT8=
EXTT9=
EXTT10=
EXTT11=
EXTT12=
EXTT13=
EXTT14=
EXTT15=
EXTT16=
EXTT17=
EXTT18=
EXTT19=
EXTT20=
EXTT21=
EXTT22=
EXTT23=
EXTT24=
EXTT25=
EXTT26=
PLAYORDER=
